<?xml version="1.0" encoding="utf-8"?>
<!-- Generator: Adobe Illustrator 24.0.3, SVG Export Plug-In . SVG Version: 6.00 Build 0)  -->
<svg version="1.1" id="Layer_1" xmlns="http://www.w3.org/2000/svg" xmlns:xlink="http://www.w3.org/1999/xlink" x="0px" y="0px"
	 viewBox="0 0 344.1 102" style="enable-background:new 0 0 344.1 102;" xml:space="preserve">
<style type="text/css">
	.st0{fill:#77BF43;}
	.st1{fill:#231F20;}
	.st2{fill:#F16548;}
	.st3{fill:#6A2C90;}
	.st4{fill:#00529B;}
	.st5{fill:#D31245;}
</style>
<g>
	<g>
		<path class="st0" d="M325.3,38.5c-2.6-0.4-3.5-1-3.5-2.4c0-1.6,1.2-2.5,3.4-2.5c1.2,0,2.3,0.3,3.2,0.9c0.4,0.3,0.7,0.2,0.9-0.1
			l0.6-0.9c0.2-0.3,0.2-0.6-0.1-0.9c-1.2-0.9-3-1.4-4.8-1.4c-3.6,0-5.9,1.9-5.9,4.9c0,2.9,1.3,4.3,5.2,4.9c2.7,0.4,3.6,1.1,3.6,2.6
			c0,1.6-1.2,2.5-3.2,2.5c-1.6,0-3.1-0.5-4.1-1.4c-0.3-0.3-0.6-0.3-0.9,0.1l-0.7,0.9c-0.2,0.3-0.2,0.6,0,0.9c1.5,1.3,3.4,1.9,6,1.9
			c3.5,0,5.7-1.9,5.7-4.9C330.7,40.6,329.3,39.1,325.3,38.5z"/>
		<path class="st0" d="M283.1,31.4c-4.1,0-6.3,1.4-6.3,4v0.9v1.2v0.9v9.2c0,0.4,0.2,0.6,0.6,0.6h1.5c0.4,0,0.6-0.2,0.6-0.6V42
			c0.9,0.3,2.1,0.5,3.5,0.5c4.1,0,6.3-1.4,6.3-4v-3C289.4,32.8,287.2,31.4,283.1,31.4z M286.6,38.3c0,1.8-1.4,2-3.9,2
			c-2.4,0-3.2-0.2-3.2-2v-0.4v-1.5v-0.7c0-1.8,1.1-1.9,3.5-1.9c2.4,0,3.5,0.1,3.5,1.9V38.3z"/>
		<path class="st0" d="M301.9,45.1c-0.2-0.3-0.5-0.4-0.9-0.1c-0.9,0.6-2,0.9-3.2,0.9c-2.2,0-3.4-0.9-3.4-2.5v-1.5V32
			c0-0.4-0.2-0.6-0.6-0.6h-1.5c-0.4,0-0.6,0.2-0.6,0.6v10.1v1.2c0,3,2.3,4.9,5.9,4.9c1.8,0,3.6-0.5,4.8-1.4c0.3-0.3,0.4-0.6,0.1-0.9
			L301.9,45.1z"/>
		<path class="st0" d="M315.9,31.8h-1.5c-0.4,0-0.6,0.2-0.6,0.6v9.8c0,2.8-1.1,4.1-3.4,4.1c-2.3,0-3.4-1.3-3.4-4.1v-9.8
			c0-0.4-0.2-0.6-0.6-0.6h-1.5c-0.4,0-0.6,0.2-0.6,0.6v10.1c0,4,2.2,6.2,6.2,6.2c4,0,6.2-2.2,6.2-6.2V32.4
			C316.5,32,316.3,31.8,315.9,31.8z"/>
	</g>
	<path class="st1" d="M58.1,69.1c-5.6,0-9.7-1.3-13-4.2c-0.6-0.6-0.6-1.2-0.1-1.9l1.5-2c0.6-0.7,1.2-0.7,2-0.1c2.2,2,5.4,3,9,3
		c4.4,0,6.9-2,6.9-5.5c0-3.2-2-4.7-7.9-5.6c-8.4-1.2-11.3-4.3-11.3-10.6c0-6.5,5-10.7,12.7-10.7c4,0,7.8,1.1,10.5,3
		c0.7,0.6,0.8,1.2,0.3,2l-1.4,2c-0.5,0.7-1.2,0.8-2,0.2c-1.9-1.3-4.3-2-6.9-2c-4.8,0-7.3,2-7.3,5.5c0,2.9,1.9,4.3,7.6,5.1
		c8.5,1.2,11.6,4.5,11.6,11C70.4,65,65.7,69.1,58.1,69.1"/>
	<path class="st1" d="M102.7,45.2V51c0,0.9-0.5,1.4-1.4,1.4H81.9v2.1c0,6.6,2.7,9.4,8.8,9.4c2.9,0,5.1-0.9,7.3-3
		c0.7-0.7,1.4-0.6,2,0.1l1.4,1.8c0.5,0.7,0.5,1.4-0.1,2c-2.9,2.8-6.7,4.3-10.9,4.3c-9.6,0-14.5-4.6-14.5-14v-9.8
		c0-8.9,4.7-13.7,13.4-13.7C98,31.6,102.7,36.3,102.7,45.2 M97,45.9c0-6.3-2.4-9.1-7.5-9.1c-5.1,0-7.5,2.8-7.5,9.1v1.5h15V45.9z"/>
	<path class="st1" d="M130.9,45.6c0-6.1-2.3-8.8-7.4-8.8c-5.1,0-7.4,2.7-7.4,8.8v21.3c0,0.9-0.5,1.4-1.4,1.4h-3.3
		c-0.9,0-1.4-0.5-1.4-1.4V44.9c0-8.7,4.7-13.4,13.4-13.4c8.7,0,13.4,4.7,13.4,13.4v21.9c0,0.9-0.5,1.4-1.4,1.4h-3.3
		c-0.9,0-1.4-0.5-1.4-1.4V45.6z"/>
	<path class="st1" d="M157,69.1c-5.6,0-9.7-1.3-13-4.2c-0.6-0.6-0.6-1.2-0.1-1.9l1.5-2c0.6-0.7,1.2-0.7,2-0.1c2.2,2,5.4,3,9,3
		c4.4,0,6.9-2,6.9-5.5c0-3.2-2-4.7-7.9-5.6c-8.4-1.2-11.3-4.3-11.3-10.6c0-6.5,5-10.7,12.7-10.7c4,0,7.8,1.1,10.5,3
		c0.7,0.6,0.8,1.2,0.3,2l-1.4,2c-0.5,0.7-1.2,0.8-2,0.2c-1.9-1.3-4.3-2-6.9-2c-4.8,0-7.3,2-7.3,5.5c0,2.9,1.9,4.3,7.6,5.1
		c8.5,1.2,11.6,4.5,11.6,11C169.4,65,164.6,69.1,157,69.1"/>
	<path class="st1" d="M201.7,45.2V51c0,0.9-0.5,1.4-1.4,1.4h-19.4v2.1c0,6.6,2.7,9.4,8.8,9.4c2.9,0,5.1-0.9,7.3-3
		c0.6-0.7,1.4-0.6,2,0.1l1.4,1.8c0.5,0.7,0.5,1.4-0.1,2c-2.9,2.8-6.7,4.3-10.9,4.3c-9.6,0-14.5-4.6-14.5-14v-9.8
		c0-8.9,4.7-13.7,13.4-13.7C197,31.6,201.7,36.3,201.7,45.2 M196,45.9c0-6.3-2.4-9.1-7.5-9.1c-5.1,0-7.5,2.8-7.5,9.1v1.5h15V45.9z"
		/>
	<path class="st1" d="M235.4,45.2v10.3c0,8.8-4.8,13.6-13.7,13.6c-8.8,0-13.6-4.8-13.6-13.6V45.2c0-8.9,4.8-13.7,13.6-13.7
		C230.6,31.6,235.4,36.3,235.4,45.2 M229.4,45.9c0-6.2-2.4-9.1-7.7-9.1c-5.2,0-7.6,2.9-7.6,9.1v9c0,6.1,2.4,9,7.6,9
		c5.3,0,7.7-2.9,7.7-9V45.9z"/>
	<path class="st1" d="M264.2,45.6c0-6.1-2.3-8.8-7.4-8.8c-5.1,0-7.4,2.7-7.4,8.8v21.3c0,0.9-0.5,1.4-1.4,1.4h-3.3
		c-0.9,0-1.4-0.5-1.4-1.4V44.9c0-8.7,4.7-13.4,13.4-13.4c8.7,0,13.4,4.7,13.4,13.4v21.9c0,0.9-0.5,1.4-1.4,1.4h-3.3
		c-0.9,0-1.4-0.5-1.4-1.4V45.6z"/>
	<path class="st2" d="M19,24.7c-4.7,0-5.3,4.1-5.3,6.4c0,1.9,0,10,0.1,12.7c0,2.7,0.8,3.5,4.9,6.7c0,0,0-15.9,0-17.4
		c0-1.2,0.7-1.8,1.3-2.1v-6.2H19z"/>
	<path class="st2" d="M27.6,24.7c4.7,0,5.3,4.1,5.3,6.4c0,1.9,0,10-0.1,12.7c0,2.7-0.8,3.5-4.9,6.6c0,0,0-15.9,0-17.4
		c0-1.2-0.7-1.8-1.3-2.1v-6.2H27.6z"/>
	<path class="st3" d="M19,80.7c-4.7,0-5.3-4.1-5.3-6.4c0-1.9,0-10,0.1-12.7c0-2.7,0.8-3.5,4.9-6.7c0,0,0,15.9,0,17.4
		c0,1.2,0.7,1.8,1.3,2.1v6.2H19z"/>
	<path class="st3" d="M27.6,80.7c4.7,0,5.3-4.1,5.3-6.4c0-1.9,0-10-0.1-12.7c0-2.7-0.8-3.5-4.9-6.6c0,0,0,15.9,0,17.4
		c0,1.2-0.7,1.8-1.3,2.1v6.2H27.6z"/>
	<path class="st4" d="M23.2,39.8c1.4,0,3,1.1,3,2.6v21.5c0,1.4-1.6,2.6-3,2.6c-1.4,0-2.8-1.1-2.8-2.6V42.3
		C20.4,40.9,21.8,39.8,23.2,39.8"/>
	<path class="st0" d="M26,18.3c0-1.4-1.5-2.6-2.8-2.6c-1.3,0-2.6,1.1-2.6,2.6v6.5V31v2.1c0,1.4,1.3,2.6,2.6,2.6
		c1.3,0,2.8-1.1,2.8-2.6V31v-6.2V18.3z"/>
	<path class="st5" d="M26,72.4c0-1.4-1.5-2.6-2.8-2.6c-1.3,0-2.6,1.1-2.6,2.6v6.5v6.2v2.1c0,1.4,1.3,2.6,2.6,2.6
		c1.3,0,2.8-1.1,2.8-2.6v-2.2v-6.2V72.4z"/>
	<path class="st1" d="M279.1,60.1c0.7,0,1.4,0.2,2.1,0.5c0.7,0.4,1.2,0.9,1.6,1.6c0.4,0.7,0.6,1.4,0.6,2.1c0,0.7-0.2,1.4-0.6,2.1
		s-0.9,1.2-1.6,1.6s-1.4,0.6-2.1,0.6c-0.7,0-1.4-0.2-2.1-0.6s-1.2-0.9-1.6-1.6s-0.6-1.4-0.6-2.1c0-0.7,0.2-1.4,0.6-2.1
		c0.4-0.7,0.9-1.2,1.6-1.6C277.7,60.3,278.4,60.1,279.1,60.1z M279.1,60.8c-0.6,0-1.2,0.2-1.7,0.5s-1,0.7-1.3,1.3s-0.5,1.2-0.5,1.8
		c0,0.6,0.2,1.2,0.5,1.7c0.3,0.6,0.7,1,1.3,1.3s1.1,0.5,1.7,0.5c0.6,0,1.2-0.2,1.7-0.5s1-0.7,1.3-1.3c0.3-0.6,0.5-1.1,0.5-1.7
		c0-0.6-0.2-1.2-0.5-1.8c-0.3-0.6-0.8-1-1.3-1.3C280.2,61,279.7,60.8,279.1,60.8z M277.2,66.7v-4.5h1.6c0.5,0,0.9,0,1.2,0.1
		c0.2,0.1,0.4,0.2,0.6,0.4s0.2,0.4,0.2,0.7c0,0.3-0.1,0.6-0.4,0.9c-0.2,0.2-0.6,0.4-0.9,0.4c0.2,0.1,0.3,0.1,0.4,0.2
		c0.2,0.2,0.4,0.5,0.7,0.9l0.6,0.9h-0.9l-0.4-0.7c-0.3-0.6-0.6-0.9-0.8-1.1c-0.1-0.1-0.3-0.2-0.6-0.2H278v1.9H277.2z M278,64.1h0.9
		c0.4,0,0.7-0.1,0.9-0.2c0.2-0.1,0.2-0.3,0.2-0.5c0-0.1,0-0.3-0.1-0.4c-0.1-0.1-0.2-0.2-0.3-0.2c-0.1-0.1-0.4-0.1-0.7-0.1H278V64.1z
		"/>
</g>
</svg>
